<svg width="115" height="115" viewBox="0 0 115 115" fill="none" xmlns="http://www.w3.org/2000/svg">
<rect width="115" height="115" rx="18" fill="#080C0B"/>
<path d="M19.822 76.27L22.082 70.014H35.918L38.178 76.269H49L33.658 38.6H24.342L9 76.268H19.822V76.27ZM32.493 61.2H25.507L29 52.252L32.493 61.202V61.2ZM54.297 76.27V64.807C54.297 64.031 54.517 63.308 54.959 62.638C55.4047 61.9644 56.0029 61.4053 56.705 61.006C57.4001 60.5954 58.1927 60.3788 59 60.379C59.64 60.379 60.343 60.509 61.112 60.767C61.881 61.026 62.546 61.368 63.11 61.795L67.082 53.804C66.428 53.317 65.598 52.921 64.594 52.616C63.589 52.312 62.638 52.16 61.74 52.16C60.355 52.16 59.011 52.514 57.71 53.221C56.409 53.929 55.27 54.915 54.297 56.178V52.89H44.799V76.27H54.297V76.27ZM73.292 77C74.799 77 76.234 76.79 77.596 76.372C78.958 75.954 80.035 75.462 80.826 74.9L77.721 68.507C77.432 68.705 77.033 68.884 76.523 69.043C76.013 69.203 75.453 69.283 74.845 69.283C73.855 69.283 72.995 69.066 72.265 68.633C71.558 68.2233 70.9774 67.6269 70.587 66.909C70.1989 66.1941 69.9987 65.3924 70.005 64.579C70.005 63.91 70.168 63.21 70.495 62.479C70.823 61.749 71.34 61.132 72.048 60.63C72.756 60.128 73.673 59.877 74.799 59.877C75.986 59.877 76.96 60.135 77.721 60.653L80.826 54.26C80.066 53.682 78.985 53.187 77.584 52.776C76.1753 52.364 74.7147 52.1566 73.247 52.16C71.344 52.16 69.582 52.506 67.961 53.199C66.341 53.891 64.932 54.827 63.737 56.007C62.5663 57.1522 61.6215 58.5074 60.952 60.002C60.2983 61.4475 59.9598 63.0156 59.959 64.602C59.959 66.292 60.313 67.887 61.021 69.386C61.728 70.886 62.699 72.206 63.931 73.347C65.1737 74.495 66.6171 75.4044 68.189 76.03C69.795 76.677 71.496 77 73.292 77V77ZM87.995 76.27V63.392C87.995 62.6 88.155 61.915 88.475 61.337C88.7853 60.7679 89.2529 60.3003 89.822 59.99C90.4 59.67 91.07 59.51 91.832 59.51C92.988 59.51 93.916 59.864 94.616 60.572C95.316 61.28 95.666 62.22 95.666 63.392V76.268H105.164V61.338C105.164 59.588 104.754 58.024 103.932 56.646C103.122 55.2806 101.969 54.1511 100.587 53.37C99.179 52.563 97.584 52.16 95.804 52.16C94.404 52.16 93.022 52.415 91.66 52.925C90.3202 53.4213 89.0793 54.1517 87.995 55.082V37H78.498V76.27H87.995V76.27Z" fill="white"/>
</svg>
